<svg width="380" height="720" viewBox="0 0 380 720" fill="none" xmlns="http://www.w3.org/2000/svg">
<path d="M129.884 -12.5075C139.98 -6.51776 143.93 10.1001 138.275 22.2095C132.119 35.4217 116.441 44.903 99.2504 45.8119C95.7109 46.0029 92.1805 45.9032 88.6232 45.828C81.3739 45.6733 73.1703 45.4862 64.4499 47.0095C24.995 53.9096 -3.84978 94.4934 1.42715 135.633C6.08415 171.731 35.6964 203.666 73.5421 213.224C89.555 217.287 104.964 217.31 119.85 217.342C127.278 217.358 134.691 217.346 142.052 217.976C155.099 219.101 171.843 224.289 176.445 234.764C180.976 245.392 172.071 260.908 160.857 269.748C150.885 277.609 138.406 283.306 125.168 289.352C117.186 293.026 109.169 296.679 101.452 300.858C68.8853 318.452 49.1721 343.328 45.9355 370.849C44.035 387.058 47.8375 404.05 56.967 419.994C86.3223 471.005 132.998 467.172 167.192 464.419C190.519 462.536 210.647 460.925 225.43 472.414C234.498 479.479 239.69 491.912 238.322 503.302C236.953 514.692 228.968 525.541 218.478 530.301C211.836 533.305 203.187 534.692 194.047 536.162C179.623 538.47 163.247 541.096 148.287 550.917C116.794 571.571 107.554 616.69 128.079 649.438L128.18 649.612C146.802 679.21 185.813 693.366 221.018 683.267C238.747 678.179 253.177 668.063 265.906 659.137C270.257 656.078 274.627 653.004 279.102 650.183C293.297 641.258 306.38 638.093 314.105 641.745C321.017 645.003 326.827 654.911 330.953 670.426C332.719 677.117 334.568 685.595 333.006 691.821C329.945 704.037 312.817 713.308 294.769 721.516L241.029 745.904C235.5 748.458 231.211 753.08 229.099 758.762C226.986 764.444 227.221 770.724 229.753 776.232C232.284 781.74 236.906 786.028 242.61 788.16C248.314 790.293 254.637 790.096 260.199 787.614L313.933 763.216C333.169 754.485 368.972 738.228 377.81 702.871C381.917 686.533 378.766 670.663 375.579 658.673C367.779 629.323 353.802 609.685 333.976 600.324C311.182 589.529 282.91 593.489 254.402 611.442C249.284 614.673 244.27 618.162 239.294 621.661C228.592 629.161 218.483 636.258 208.23 639.195C192.939 643.587 174.995 637.464 167.312 625.259L167.278 625.201C160.14 613.816 163.334 595.986 173.681 589.188C180.367 584.807 190.097 583.239 201.366 581.46C212.634 579.68 225.321 577.616 237.6 572.048C262.629 560.691 280.907 535.841 284.153 508.722C287.4 481.603 275.556 453.219 253.926 436.336C224.96 413.77 190.877 416.486 163.507 418.668C128.565 421.46 111.244 421.737 97.1032 397.276C92.9424 389.988 91.0566 382.469 91.8102 376.1C93.8201 358.885 114.653 345.889 123.499 341.103C130.308 337.427 137.383 334.22 144.447 330.991C159.561 324.081 175.232 316.952 189.527 305.645C213.792 286.524 233.356 250.545 218.931 216.807C208.457 191.919 181.07 175.267 146.05 172.253C137.406 171.512 128.667 171.464 119.964 171.446C107.349 171.434 95.3933 171.41 84.9206 168.754C65.3289 163.817 49.4923 147.435 47.226 129.788C45.0886 113.077 57.3278 94.7925 72.3983 92.1588C76.6398 91.4245 81.9556 91.542 87.5865 91.66C92.3069 91.7658 97.0305 91.8379 101.712 91.5855C136.016 89.7704 166.819 70.0884 180.166 41.4336C191.083 17.9982 188.462 -9.66087 175.478 -30.2992C170.062 -39.0278 162.662 -46.3727 153.871 -51.7449C148.636 -54.902 142.351 -55.8628 136.4 -54.416C130.449 -52.9691 125.319 -49.2331 122.138 -44.0299C118.957 -38.8267 117.986 -32.5825 119.439 -26.6709C120.892 -20.7593 124.649 -15.6646 129.884 -12.5075V-12.5075Z" fill="#FE2EBB"/>
</svg>
