<svg width="100%" height="100%" viewBox="0 0 439 339" fill="none" xmlns="http://www.w3.org/2000/svg">
<g clip-path="url(#clip0_126_759)">
<path d="M120.715 194.584C123.255 192.913 126.367 195.669 128.048 198.139C130.927 202.459 133.574 202.246 137.724 200.237C144.555 196.931 149.527 193.127 146.165 204.894C145.548 206.466 145.203 208.131 145.146 209.818C145.325 212.715 147.685 214.973 150.118 216.555C152.706 217.881 155.057 219.623 157.075 221.71C157.382 222.04 157.617 222.431 157.765 222.856C157.912 223.281 157.97 223.732 157.933 224.181C157.575 226.047 155.018 226.332 153.104 226.172L140.907 225.07C140.169 224.906 139.395 225.026 138.743 225.407C138.245 225.883 137.919 226.507 137.813 227.185C136.708 231.512 135.08 235.69 132.966 239.628C132.215 240.997 130.91 242.579 129.389 242.099C128.804 241.87 128.304 241.466 127.959 240.943C126.83 239.465 126.048 237.754 125.67 235.936C125.293 234.119 125.329 232.24 125.777 230.438C126.101 229.544 126.253 228.597 126.224 227.647C126.041 226.921 125.674 226.254 125.157 225.709C124.64 225.164 123.992 224.76 123.273 224.536C120.59 223.488 117.568 223.879 114.778 223.185C111.988 222.492 109.198 219.79 110.217 217.106C112.167 211.969 119.463 215.933 122.039 212.271C124.614 208.609 121.019 198.708 120.715 194.584Z" fill="#FEF3F4" stroke="black" stroke-width="2.66" stroke-linecap="round" stroke-linejoin="round"/>
<path d="M335.294 40.6641C337.368 42.886 335.133 46.3879 332.879 48.4498C329.07 52.005 329.696 54.5292 332.36 58.2798C336.742 64.448 341.303 68.7142 329.088 67.3099C327.425 66.9559 325.713 66.8838 324.026 67.0966C321.183 67.7187 319.323 70.4029 318.124 73.0515C316.926 75.7001 316.121 78.5797 314.136 80.695C313.857 81.0462 313.508 81.3364 313.111 81.5474C312.714 81.7585 312.278 81.8858 311.829 81.9216C309.898 81.9216 309.218 79.4152 309.075 77.5132L308.216 65.3723C308.253 64.6253 308.011 63.8912 307.537 63.3104C306.966 62.8974 306.276 62.6792 305.569 62.6882C301.074 62.3053 296.642 61.3801 292.371 59.933C290.886 59.4175 289.116 58.3865 289.33 56.84C289.478 56.2286 289.801 55.6729 290.26 55.2402C291.546 53.898 293.118 52.8584 294.86 52.1971C296.602 51.5359 298.471 51.2698 300.329 51.4184C301.269 51.5962 302.234 51.5962 303.173 51.4184C303.869 51.1271 304.478 50.6611 304.939 50.066C305.399 49.4708 305.697 48.767 305.802 48.0232C306.41 45.2325 305.534 42.3172 305.802 39.4731C306.07 36.6289 308.288 33.4471 311.167 34.0159C316.533 35.1003 313.832 42.9038 317.874 44.8591C321.916 46.8144 331.287 41.7128 335.294 40.6641Z" fill="#FEF3F4" stroke="black" stroke-width="2.66" stroke-linecap="round" stroke-linejoin="round"/>
<path d="M384.655 170.427C387.195 168.756 390.306 171.511 392.006 173.982C394.867 178.302 397.532 178.088 401.681 176.08C408.495 172.773 413.467 168.969 410.105 180.737C409.506 182.315 409.162 183.976 409.085 185.661C409.264 188.558 411.625 190.816 414.057 192.398C416.646 193.724 418.996 195.466 421.014 197.553C421.321 197.883 421.556 198.274 421.704 198.699C421.852 199.124 421.909 199.575 421.873 200.024C421.515 201.801 418.958 202.175 417.044 202.015L404.847 200.913C404.108 200.75 403.335 200.871 402.683 201.25C402.187 201.725 401.866 202.351 401.77 203.028C400.657 207.355 399.024 211.532 396.906 215.471C396.155 216.857 394.849 218.422 393.329 217.942C392.743 217.713 392.243 217.309 391.898 216.786C390.769 215.308 389.987 213.597 389.61 211.779C389.232 209.961 389.269 208.083 389.716 206.281C390.04 205.393 390.191 204.452 390.163 203.508C389.99 202.775 389.626 202.101 389.108 201.552C388.59 201.003 387.937 200.599 387.212 200.379C384.53 199.33 381.507 199.722 378.717 199.028C375.927 198.335 373.137 195.633 374.157 192.949C376.106 187.812 383.403 191.776 385.996 188.114C388.59 184.452 384.941 174.569 384.655 170.427Z" fill="#FEF3F4" stroke="black" stroke-width="2.66" stroke-linecap="round" stroke-linejoin="round"/>
<path d="M297.307 250.222C303.281 252.818 309.826 253.635 316.068 255.68C321.916 257.617 327.425 260.657 333.47 261.794" stroke="black" stroke-width="2.66" stroke-linecap="round" stroke-linejoin="round"/>
<path d="M299.882 274.308C301.739 269.979 304.059 265.861 306.804 262.025C307.74 260.542 308.955 259.251 310.381 258.221C311.109 257.714 311.953 257.395 312.837 257.293C313.72 257.19 314.615 257.308 315.442 257.635C316.976 258.566 318.153 259.98 318.786 261.652C321.558 267.18 324.152 272.851 326.316 278.61" stroke="black" stroke-width="2.66" stroke-linecap="round" stroke-linejoin="round"/>
<path d="M315.192 254.595C315.069 248.538 315.494 242.481 316.461 236.499" stroke="black" stroke-width="2.66" stroke-linecap="round" stroke-linejoin="round"/>
<path d="M12.085 285.401C18.5949 285.649 25.0334 284.014 31.5612 283.623C37.7135 283.303 43.9552 284.121 50.0001 282.983" stroke="black" stroke-width="2.66" stroke-linecap="round" stroke-linejoin="round"/>
<path d="M23.3701 306.874C23.5186 302.168 24.1661 297.491 25.3017 292.92C25.6413 291.181 26.3219 289.526 27.3047 288.049C27.7962 287.314 28.4636 286.711 29.247 286.296C30.0305 285.88 30.9056 285.664 31.7938 285.667C33.5626 285.971 35.1761 286.861 36.3722 288.191C40.9983 292.339 45.4217 296.688 49.6425 301.239" stroke="black" stroke-width="2.66" stroke-linecap="round" stroke-linejoin="round"/>
<path d="M30.4166 282.947C28.0744 277.348 26.2312 271.554 24.9082 265.634" stroke="black" stroke-width="2.66" stroke-linecap="round" stroke-linejoin="round"/>
<path d="M160.848 107.128C167.287 108.159 173.886 107.288 180.396 107.714C186.548 108.123 192.647 109.687 198.781 109.278" stroke="black" stroke-width="2.66" stroke-linecap="round" stroke-linejoin="round"/>
<path d="M169.469 129.792C170.176 125.135 171.375 120.565 173.046 116.158C173.588 114.477 174.457 112.919 175.603 111.572C176.187 110.908 176.926 110.398 177.757 110.087C178.587 109.777 179.481 109.676 180.36 109.794C182.074 110.31 183.566 111.38 184.599 112.834C188.677 117.509 192.558 122.361 196.188 127.374" stroke="black" stroke-width="2.66" stroke-linecap="round" stroke-linejoin="round"/>
<path d="M179.269 106.879C177.62 101.064 176.489 95.1153 175.889 89.103" stroke="black" stroke-width="2.66" stroke-linecap="round" stroke-linejoin="round"/>
<path d="M410.623 258.328C409.542 256.221 407.996 254.384 406.101 252.953C404.206 251.521 402.01 250.534 399.678 250.062C395.994 249.582 388.947 249.191 386.175 252.124C382.598 255.946 383.993 264.016 385.997 268.123C388.173 272.409 391.61 275.937 395.851 278.237C399.07 280.015 403.112 281.152 406.385 279.446C410.158 277.473 411.267 272.673 411.75 268.443C412.326 265.032 411.936 261.53 410.623 258.328Z" fill="black" stroke="black" stroke-width="2.66" stroke-linecap="round" stroke-linejoin="round"/>
<path d="M295.697 153.54C291.834 151.265 286.165 152.616 282.391 154.678C280.424 155.762 280.335 157.557 279.637 159.477C279.307 160.319 279.164 161.223 279.22 162.125C279.275 163.028 279.528 163.907 279.959 164.703C280.737 165.836 281.78 166.763 282.999 167.405C285.924 169.147 289.172 170.283 292.55 170.747C295.536 171.138 298.952 170.854 300.938 168.596C301.806 167.379 302.322 165.948 302.429 164.459C302.537 162.97 302.231 161.481 301.546 160.153C300.349 157.389 298.301 155.074 295.697 153.54Z" fill="black" stroke="black" stroke-width="2.66" stroke-linecap="round" stroke-linejoin="round"/>
<path d="M86.27 112.158C82.407 109.883 76.7376 111.216 72.964 113.296C70.9967 114.38 70.9072 116.175 70.2097 118.077C69.8753 118.922 69.7309 119.829 69.7865 120.735C69.8421 121.641 70.0965 122.524 70.5317 123.321C71.3143 124.441 72.3573 125.355 73.572 125.988C76.4976 127.724 79.7461 128.855 83.1223 129.312C86.1091 129.721 89.525 129.418 91.5102 127.161C92.3792 125.947 92.8955 124.519 93.0028 123.033C93.11 121.547 92.804 120.06 92.1182 118.735C90.9154 115.985 88.8684 113.683 86.27 112.158Z" fill="black" stroke="black" stroke-width="2.66" stroke-linecap="round" stroke-linejoin="round"/>
<path d="M245.978 237.868C242.115 235.593 236.446 236.926 232.672 239.006C230.705 240.09 230.616 241.886 229.918 243.788C229.574 244.645 229.424 245.568 229.48 246.49C229.535 247.411 229.795 248.31 230.24 249.12C231.018 250.246 232.054 251.172 233.263 251.822C236.188 253.558 239.437 254.689 242.813 255.146C245.8 255.555 249.215 255.253 251.201 252.995C252.069 251.778 252.585 250.347 252.693 248.858C252.8 247.369 252.494 245.88 251.809 244.552C250.63 241.765 248.587 239.423 245.978 237.868Z" fill="black" stroke="black" stroke-width="2.66" stroke-linecap="round" stroke-linejoin="round"/>
<path d="M140.371 289.525C148.508 280.939 133.217 268.407 125.33 274.984C123.425 276.758 122.204 279.138 121.878 281.711C121.551 284.285 122.139 286.892 123.541 289.08C126.278 292.778 131.786 293.346 136.186 291.924C137.759 291.48 139.196 290.655 140.371 289.525Z" fill="black" stroke="black" stroke-width="2.66" stroke-linecap="round" stroke-linejoin="round"/>
<path d="M232.708 178.408C227.343 178.408 226.646 186.852 232.136 186.852C237.627 186.852 238.288 178.408 232.708 178.408Z" fill="black"/>
<path d="M191.52 195.206L187.013 194.211C185.948 193.888 184.799 193.983 183.801 194.476C182.804 194.968 182.033 195.821 181.648 196.859C181.401 197.71 181.412 198.614 181.679 199.458C181.946 200.302 182.458 201.049 183.15 201.606C185.547 205.836 193.023 205.943 194.221 200.557C194.65 198.513 193.971 195.74 191.52 195.206Z" fill="black"/>
<path d="M73.518 200.859C73.3219 200.006 72.9638 199.197 72.4628 198.477C72.0975 198.02 71.628 197.656 71.0931 197.415C70.5582 197.174 69.9733 197.063 69.3867 197.091L69.0647 196.931C63.8067 195.153 58.3341 200.592 60.6948 205.819C61.0004 206.465 61.4762 207.018 62.0719 207.418C62.2882 208.757 62.9124 209.998 63.8604 210.974C67.2584 214.529 73.6432 213.871 75.0024 208.769C75.5657 206.041 75.0329 203.202 73.518 200.859Z" fill="black"/>
<path d="M237.143 54.8846C237.052 52.9125 236.244 51.0403 234.869 49.6151C233.494 48.19 231.646 47.3087 229.668 47.1344C225.858 46.85 221.709 49.3919 221.781 53.5514C221.774 54.4059 222.011 55.2447 222.463 55.9712C222.916 56.6978 223.566 57.2824 224.338 57.6576C224.338 61.3372 226.377 65.1945 230.383 65.4789C236.088 65.8345 237.555 59.293 237.143 54.8846Z" fill="black"/>
<path d="M142.034 49.5519C141.496 49.3071 140.907 49.1985 140.317 49.2357C139.727 49.2729 139.155 49.4549 138.654 49.7652C137.961 49.4677 137.198 49.3751 136.454 49.4986C135.35 49.7184 134.377 50.3584 133.742 51.2818C133.107 52.2051 132.861 53.3387 133.056 54.4403C133.512 56.165 134.318 57.7786 135.426 59.1818C136.533 60.585 137.918 61.7481 139.494 62.5993C140.276 63.088 141.194 63.3185 142.116 63.2579C143.038 63.1972 143.917 62.8485 144.627 62.2616C145.561 61.3631 146.252 60.2454 146.638 59.0116C147.023 57.7777 147.089 56.4673 146.831 55.2012C146.572 53.9351 145.998 52.754 145.159 51.7667C144.321 50.7795 143.246 50.0178 142.034 49.5519Z" fill="black"/>
<path d="M204.791 270.984C204.197 270.307 203.394 269.843 202.508 269.666C201.621 269.49 200.701 269.609 199.89 270.007C199.235 270.328 198.664 270.798 198.223 271.377C197.781 271.956 197.482 272.629 197.348 273.344C197.215 274.058 197.25 274.793 197.453 275.492C197.655 276.19 198.018 276.832 198.513 277.366C200.445 279.535 204.594 279.73 206.042 276.868C206.635 275.916 206.835 274.773 206.602 273.677C206.369 272.581 205.72 271.617 204.791 270.984Z" fill="black"/>
<path d="M365.268 305.025L360.046 301.701C355.45 298.768 350.728 305.807 355.342 308.811L360.565 312.135C365.268 314.997 369.918 307.976 365.268 305.025Z" fill="black"/>
<path d="M339.014 202.708C333.559 202.708 332.933 211.151 338.424 211.151C343.914 211.151 344.486 202.708 339.014 202.708Z" fill="black"/>
<path d="M166.088 2.64166C165.909 2.94385 165.909 3.05051 165.748 3.03273C160.276 2.80165 159.686 11.2274 165.158 11.4762C166.75 11.588 168.342 11.2584 169.757 10.524C171.172 9.7896 172.353 8.67926 173.17 7.31669C175.889 2.6239 168.825 -1.99781 166.088 2.64166Z" fill="black"/>
<path d="M9.02645 174.195H4.76993C-0.59542 174.195 -1.29293 182.639 4.19762 182.639H8.43629C13.8911 182.639 14.517 174.195 9.02645 174.195Z" fill="black"/>
<path d="M434.374 307.3H433.319C427.953 307.3 427.238 315.726 432.729 315.726H433.784C439.239 315.744 439.865 307.3 434.374 307.3Z" fill="black"/>
<path d="M369.382 115.909C368.814 114.85 368.019 113.927 367.054 113.207C366.088 112.486 364.976 111.984 363.794 111.737C362.613 111.489 361.391 111.502 360.215 111.775C359.039 112.047 357.937 112.572 356.988 113.314C356.129 113.974 355.456 114.844 355.035 115.839C354.613 116.834 354.457 117.92 354.581 118.992C354.705 120.064 355.105 121.087 355.743 121.96C356.381 122.834 357.235 123.529 358.222 123.979C358.823 124.678 359.565 125.245 360.4 125.643C361.234 126.041 362.143 126.261 363.069 126.29C368.219 126.361 371.492 120.317 369.382 115.909Z" fill="black"/>
<path d="M276.579 109.989C276.008 108.766 275.04 107.768 273.83 107.155C272.621 106.543 271.24 106.352 269.908 106.612C265.079 107.359 265.83 113.971 269.908 114.842C272.841 117.757 278.761 114.416 276.579 109.989Z" fill="black"/>
<path d="M284.52 290.787L283.464 289.72C282.708 288.897 281.661 288.396 280.542 288.32C279.423 288.244 278.318 288.599 277.455 289.311C276.616 290.056 276.103 291.098 276.026 292.214C275.949 293.33 276.314 294.432 277.044 295.284L278.117 296.333C278.868 297.158 279.912 297.662 281.03 297.738C282.147 297.814 283.25 297.457 284.108 296.742C284.951 296.002 285.466 294.963 285.543 293.848C285.62 292.733 285.253 291.634 284.52 290.787Z" fill="black"/>
<path d="M96.6609 311.531H94.5326C89.1673 311.531 88.4698 319.957 93.9603 319.957H96.0886C101.525 319.957 102.151 311.531 96.6609 311.531Z" fill="black"/>
<path d="M219.957 142.501H218.901C213.447 142.501 212.821 150.927 218.311 150.927H219.384C224.821 150.874 225.447 142.501 219.957 142.501Z" fill="black"/>
<path d="M132.77 148.829C127.404 148.829 126.707 157.273 132.179 157.273C137.652 157.273 138.296 148.829 132.77 148.829Z" fill="black"/>
<path d="M392.095 329.84C386.73 329.84 386.032 338.266 391.523 338.266C397.013 338.266 397.46 329.84 392.095 329.84Z" fill="black"/>
</g>
<defs>
<clipPath id="clip0_126_759">
<rect width="437.831" height="337.579" fill="white" transform="translate(0.370605 0.686401)"/>
</clipPath>
</defs>
</svg>
